# xmcd CD database file
#
# Track frame offsets:
#	150
#	22431
#	35150
#	49056
#	63801
#	75541
#	89616
#	104028
#	118483
#	134754
#	149264
#	164382
#	184470
#	203344
#	220799
#	239691
#	263916
#
# Disc length: 3826 seconds
#
# Revision: 0
# Processed by: cddbd v1.5.1PL0 Copyright (c) Steve Scherf et al.
# Submitted via: CDex 1.51
#
DISCID=100ef011
DTITLE=Various Artist - Introducing Jazz (M&S)
DYEAR=1900
DGENRE=Jazz
TTITLE0=Duke Ellington - Take the A Train
TTITLE1=Jelly Roll Morton - The Pearls
TTITLE2=Louis Armstrong - Georgia Bo Bo
TTITLE3=Count Basie - Every Tub
TTITLE4=Ella Fitzgerald - Sing Me a Swing Song
TTITLE5=Django Reinhardt and Stephan Grappelli - Sweet Georgia Brown
TTITLE6=Coleman Hawkins - I Only Have Eyes For You
TTITLE7=Billie Holliday - As Time Goes By
TTITLE8=Charlie Parker and Dizzy Gillespie - Mohawk
TTITLE9=Art Blakey - Mayreh
TTITLE10=Gerry Mulligan and Paul Desmond - Stand Still
TTITLE11=Oscar Peterson - The Gravy Waltz
TTITLE12=Stan Getz - Desafinado
TTITLE13=Charles Mingus - Prayer for Passive Resistance
TTITLE14=John Coltrane - After the Rain
TTITLE15=Michael Brecker - Escher Sketch
TTITLE16=Herbie Hancock - All Apologies
EXTD=
EXTT0=
EXTT1=
EXTT2=
EXTT3=
EXTT4=
EXTT5=
EXTT6=
EXTT7=
EXTT8=
EXTT9=
EXTT10=
EXTT11=
EXTT12=
EXTT13=
EXTT14=
EXTT15=
EXTT16=
PLAYORDER=
